<svg width="1058" height="785" viewBox="0 0 1058 785" fill="none" xmlns="http://www.w3.org/2000/svg">
<rect width="1058" height="785" fill="#E5E5E5"/>
<g id="undraw_Ride_a_bicycle_2yok 1" clip-path="url(#clip0)">
<path id="Vector" opacity="0.6" d="M219.404 215.643C214.689 220.98 212.873 228.484 210.842 235.538C194.494 292.393 154.209 338.123 108.332 370.788C88.9033 384.624 65.2503 403.18 69.5008 427.987C71.7895 441.31 81.8307 451.117 89.2905 461.968C104.942 484.689 110.018 515.572 102.558 542.771C94.0745 573.718 70.3612 602.595 77.7006 633.887C82.2265 653.149 97.5936 666.857 112.367 678.638C135.415 697.007 159.197 714.214 183.713 730.26C200.147 741.014 217.631 751.48 236.784 752.844C253.648 754.048 270.169 748.069 286.181 742.17C300.171 737.009 314.515 731.64 325.812 721.303C333.186 714.553 339.063 705.845 347.254 700.324C366.493 687.354 391.204 695.573 413.265 701.126C465.321 714.16 521.033 709.401 570.568 687.691C646.552 654.385 704.467 584.44 778.79 546.912C810.746 530.772 845.507 520.756 875.097 499.97C891.768 488.135 906.094 473.674 917.43 457.241C939.801 425.05 951.899 384.006 948.405 343.829C944.912 303.653 925.337 264.937 894.594 242.256C861.683 217.978 820.116 213.444 782.671 198.869C744.003 183.813 709.604 157.938 671.306 141.782C640.317 128.745 606.592 122.346 572.605 123.053C538.619 123.76 505.233 131.555 474.898 145.867C433.219 165.53 390.972 211.405 344.552 214.888C311.477 217.296 245.234 186.413 219.404 215.643Z" fill="url(#paint0_linear)"/>
<path id="Vector_2" d="M387 554.303L344.293 512.159L330.947 525.683L373.654 567.827L387 554.303Z" fill="#1976D2"/>
<path id="Vector_3" opacity="0.1" d="M387 554.303L344.293 512.159L330.947 525.683L373.654 567.827L387 554.303Z" fill="black"/>
<path id="Vector_4" d="M354.48 491.99C354.48 491.99 379.27 478.91 388.85 470.49C394.617 465.444 400.818 460.917 407.38 456.96L438.48 438.03L503.48 433.03L506.48 444.03C506.48 444.03 511.48 460.03 461.48 474.03C411.48 488.03 386.48 510.03 386.48 510.03C386.48 510.03 354.48 520.99 354.48 491.99Z" fill="#DB8B8B"/>
<path id="Vector_5" opacity="0.1" d="M389.13 507.86C387.36 509.21 386.48 509.99 386.48 509.99C386.48 509.99 354.48 520.99 354.48 491.99C354.48 491.99 356.03 491.17 358.48 489.8C360.955 493.831 364.423 497.16 368.551 499.469C372.679 501.778 377.33 502.99 382.06 502.99H385.45L389.13 507.86Z" fill="black"/>
<path id="Vector_6" opacity="0.05" d="M505.54 449.55C502.76 455.44 493.17 465.12 461.48 473.99C420.87 485.36 396.75 501.99 389.13 507.86C387.36 509.21 386.48 509.99 386.48 509.99C386.48 509.99 354.48 520.99 354.48 491.99C354.48 491.99 356.03 491.17 358.48 489.8C365.91 485.73 381.64 476.8 388.82 470.45C394.586 465.403 400.787 460.875 407.35 456.92L438.45 437.99L450.03 437.1L503.45 432.99L506.45 443.99C506.45 443.99 507.15 446.14 505.54 449.55Z" fill="black"/>
<path id="Vector_7" d="M354.98 485.49L328.48 502.99L406.08 567.99C406.08 567.99 417.48 560.99 411.48 552.99C411.48 552.99 391.48 535.99 390.48 511.99L384.48 503.99H381.09C375.358 503.991 369.767 502.211 365.089 498.897C360.412 495.583 356.88 490.898 354.98 485.49Z" fill="#ABB1D1"/>
<path id="Vector_8" opacity="0.1" d="M505.54 449.55C489.54 441.82 450.48 440.99 450.48 440.99L450.06 437.1L503.48 432.99L506.48 443.99C506.48 443.99 507.15 446.14 505.54 449.55Z" fill="black"/>
<path id="Vector_9" d="M450.48 438.99C450.48 438.99 497.48 439.99 509.48 449.99L503.48 328.99H438.48L450.48 438.99Z" fill="#ABB1D1"/>
<path id="Vector_10" opacity="0.05" d="M450.48 438.49C450.48 438.49 497.48 439.49 509.48 449.49L503.48 328.49H438.48L450.48 438.49Z" fill="black"/>
<path id="Vector_11" d="M488.24 364.95C488.24 364.95 605.89 360.95 608.29 376.16C610.69 391.37 490.64 384.96 490.64 384.96C490.64 384.96 481.04 375.35 488.24 364.95Z" fill="#535461"/>
<path id="Vector_12" opacity="0.05" d="M488.24 364.95C488.24 364.95 605.89 360.95 608.29 376.16C610.69 391.37 490.64 384.96 490.64 384.96C490.64 384.96 481.04 375.35 488.24 364.95Z" fill="black"/>
<path id="Vector_13" d="M393 425.78H372.19V606.66H393V425.78Z" fill="#1976D2"/>
<path id="Vector_14" opacity="0.1" d="M393 425.77V439.7C386.08 440.6 379 441.17 372.19 441.39V425.77H393Z" fill="black"/>
<path id="Vector_15" d="M391.44 410.78C388.52 410.554 385.616 410.164 382.74 409.61C371.46 407.45 343.02 402.92 335.37 410.61C325.77 420.21 328.97 437.02 354.58 439.42C380.19 441.82 424.21 435.42 433.02 425.81C433.02 425.77 417.09 412.75 391.44 410.78Z" fill="#535461"/>
<path id="Vector_16" d="M387.4 475.4L605.9 407.37L613.1 424.18L389 501.01L387.4 475.4Z" fill="#1976D2"/>
<path id="Vector_17" d="M452.23 582.65L609.9 427.38L618.7 440.18L468.23 597.05L452.23 582.65Z" fill="#1976D2"/>
<path id="Vector_18" opacity="0.1" d="M653.58 529.85C648.584 531.142 643.712 532.872 639.02 535.02L629.46 508.31C634.477 506.123 639.644 504.295 644.92 502.84L653.58 529.85Z" fill="black"/>
<path id="Vector_19" d="M680.33 608.26L669.13 614.66L590.99 396.33L587.49 386.56L605.9 376.15L610.51 390.53L680.33 608.26Z" fill="#1976D2"/>
<path id="Vector_20" opacity="0.1" d="M610.51 390.53L590.99 396.33L587.49 386.56L605.9 376.15L610.51 390.53Z" fill="black"/>
<path id="Vector_21" d="M491.44 407.37L601.09 369.75C601.09 369.75 620.3 372.15 613.09 388.16L502.65 420.97C502.65 420.97 485.85 422.57 491.44 407.37Z" fill="#535461"/>
<g id="left-wheel">
<path id="Vector_22" d="M256.725 719.778L250.455 621.838L250.325 621.628L244.005 623.828L214.925 708.678L168.675 675.888L242.345 622.478L242.415 622.268L242.835 622.118L247.585 618.668L170.345 575.358L151.425 596.158L154.425 615.658L243.245 617.278V619.278L152.765 617.658L149.345 595.518L175.245 567.058L213.995 521.858L214.685 523.728L222.885 514.728L253.345 520.188V518.978L255.345 519.038V520.548L300.705 528.668L258.415 613.278L252.245 617.748V618.248V618.808L350.045 584.728L338.435 675.938L255.435 623.068L252.515 621.428L301.455 700.308L256.725 719.778ZM252.725 625.438L258.575 716.818L298.625 699.438L252.725 625.438ZM172.145 675.868L213.935 705.498L241.275 625.758L172.145 675.868ZM254.465 620.208L256.555 621.378L336.905 672.578L347.705 587.708L254.465 620.208ZM247.365 613.008L249.875 617.058L250.315 616.738L253.315 522.208L223.575 516.888L215.415 525.888L247.365 613.008ZM171.945 573.948L246.785 615.948L245.485 613.818L213.905 527.548L176.715 568.418L171.945 573.948ZM255.345 522.558L252.345 615.278L256.865 611.998L297.775 530.178L255.345 522.558Z" fill="#535461"/>
<path id="Vector_23" d="M366.415 592.738C362.405 574.919 354.285 558.283 342.705 544.158C338.406 538.909 333.666 534.038 328.535 529.598C308.809 512.567 283.986 502.568 257.962 501.17C231.938 499.771 206.187 507.053 184.749 521.873C163.311 536.693 147.401 558.211 139.515 583.05C131.629 607.89 132.214 634.645 141.178 659.116C150.142 683.587 166.978 704.39 189.042 718.258C211.107 732.127 237.152 738.277 263.09 735.743C289.028 733.208 313.39 722.134 332.353 704.257C351.317 686.379 363.807 662.712 367.865 636.968C368.809 630.907 369.284 624.783 369.285 618.648C369.292 609.932 368.329 601.242 366.415 592.738ZM251.225 707.088C232.993 707.069 215.209 701.435 200.292 690.953C185.374 680.47 174.047 665.648 167.851 648.501C161.655 631.354 160.89 612.715 165.66 595.118C170.43 577.521 180.505 561.82 194.513 550.15C208.521 538.48 225.783 531.408 243.953 529.895C262.122 528.381 280.316 532.501 296.062 541.693C311.807 550.884 324.34 564.703 331.956 581.268C339.571 597.834 341.9 616.343 338.625 634.278C334.875 654.722 324.076 673.203 308.107 686.506C292.137 699.809 272.01 707.093 251.225 707.088Z" fill="#535461"/>
</g>
<path id="Vector_24" opacity="0.1" d="M367.79 615.86C367.789 621.994 367.314 628.119 366.37 634.18C356.77 633.49 346.85 632.49 337.13 631.49C339.289 619.599 339.021 607.394 336.34 595.61C345.81 593.61 355.48 591.7 364.92 589.97C366.833 598.467 367.795 607.15 367.79 615.86Z" fill="black"/>
<path id="Vector_25" opacity="0.1" d="M393 585.38V606.65H372.19V588.65C379.39 587.4 386.39 586.29 393 585.38Z" fill="black"/>
<path id="Vector_26" d="M258.54 615.49C258.54 615.49 426.62 571.49 440.22 588.28C453.82 605.07 468.23 627.49 425.85 635.49C383.47 643.49 255.37 621.88 255.37 621.88L258.54 615.49Z" fill="#1976D2"/>
<path id="Vector_27" opacity="0.1" d="M341.21 541.37L319.85 560.92C316.067 556.064 311.791 551.614 307.09 547.64L327.03 526.81C332.164 531.249 336.908 536.12 341.21 541.37Z" fill="black"/>
<path id="Vector_28" d="M252.94 606.66L378.59 475.4L382.6 505.81L259.34 618.66L252.94 606.66Z" fill="#1976D2"/>
<path id="Vector_29" opacity="0.1" d="M251.34 628.27C258.415 628.27 264.15 622.535 264.15 615.46C264.15 608.385 258.415 602.65 251.34 602.65C244.265 602.65 238.53 608.385 238.53 615.46C238.53 622.535 244.265 628.27 251.34 628.27Z" fill="black"/>
<path id="Vector_30" d="M251.81 629.62C258.885 629.62 264.62 623.885 264.62 616.81C264.62 609.735 258.885 604 251.81 604C244.735 604 239 609.735 239 616.81C239 623.885 244.735 629.62 251.81 629.62Z" fill="#535461"/>
<path id="Vector_31" opacity="0.1" d="M675.13 627.07C682.205 627.07 687.94 621.335 687.94 614.26C687.94 607.185 682.205 601.45 675.13 601.45C668.055 601.45 662.32 607.185 662.32 614.26C662.32 621.335 668.055 627.07 675.13 627.07Z" fill="black"/>
<g id="right-wheel">
<path id="Vector_32" d="M680.847 716.78L674.587 618.88L674.457 618.67L668.137 620.87L639.047 705.68L592.797 672.88L666.487 619.47L666.557 619.26L666.977 619.11L671.727 615.66L594.487 572.35L575.557 593.15L578.557 612.65L667.357 614.23V616.23L576.877 614.61L573.477 592.5L599.367 564.05L638.087 518.88L638.777 520.75L646.977 511.75L677.517 517.22V516.01L679.517 516.07V517.58L724.877 525.7L682.547 610.35L676.377 614.82V615.32V615.88L774.187 581.8L762.577 673.01L679.577 620.14L676.657 618.5L725.597 697.39L680.847 716.78ZM676.847 622.44L682.697 713.82L722.747 696.44L676.847 622.44ZM596.277 672.88L638.067 702.51L665.407 622.77L596.277 672.88ZM678.597 617.22L680.687 618.39L761.037 669.59L771.837 584.72L678.597 617.22ZM671.497 610.02L674.007 614.07L674.447 613.75L677.447 519.22L647.707 513.88L639.547 522.88L671.497 610.02ZM596.107 570.97L670.947 612.97L669.647 610.84L638.067 524.57L600.867 565.45L596.107 570.97ZM679.477 519.58L676.477 612.27L680.997 608.99L721.907 527.17L679.477 519.58Z" fill="#535461"/>
<path id="Vector_33" d="M675.757 498C665.144 497.988 654.578 499.415 644.347 502.24C639.071 503.695 633.904 505.523 628.887 507.71C602.157 519.297 580.674 540.387 568.594 566.898C556.514 593.41 554.697 623.459 563.492 651.233C572.287 679.008 591.071 702.533 616.209 717.259C641.348 731.984 671.054 736.863 699.582 730.952C728.109 725.04 753.431 708.759 770.648 685.257C787.865 661.755 795.754 632.702 792.789 603.72C789.823 574.738 776.215 547.885 754.595 528.356C732.975 508.828 704.881 498.012 675.747 498H675.757ZM675.357 704.09C655.076 704.082 635.408 697.137 619.62 684.407C603.831 671.678 592.872 653.931 588.562 634.113C584.252 614.295 586.851 593.599 595.928 575.463C605.004 557.326 620.011 542.84 638.457 534.41C643.149 532.262 648.021 530.532 653.017 529.24C665.229 526.07 677.977 525.537 690.411 527.678C702.845 529.818 714.681 534.581 725.13 541.652C735.58 548.722 744.404 557.937 751.015 568.683C757.627 579.429 761.873 591.46 763.473 603.975C765.073 616.49 763.989 629.202 760.293 641.265C756.598 653.329 750.375 664.467 742.04 673.939C733.704 683.41 723.447 690.998 711.951 696.196C700.455 701.395 687.984 704.086 675.367 704.09H675.357Z" fill="#535461"/>
<path id="Vector_34" d="M675.357 628.06C682.432 628.06 688.167 622.325 688.167 615.25C688.167 608.175 682.432 602.44 675.357 602.44C668.282 602.44 662.547 608.175 662.547 615.25C662.547 622.325 668.282 628.06 675.357 628.06Z" fill="#535461"/>
</g>
<path id="Vector_35" opacity="0.1" d="M448.22 628.27C462.364 628.27 473.83 616.804 473.83 602.66C473.83 588.516 462.364 577.05 448.22 577.05C434.076 577.05 422.61 588.516 422.61 602.66C422.61 616.804 434.076 628.27 448.22 628.27Z" fill="black"/>
<path id="Vector_36" d="M449.83 628.27C463.974 628.27 475.44 616.804 475.44 602.66C475.44 588.516 463.974 577.05 449.83 577.05C435.686 577.05 424.22 588.516 424.22 602.66C424.22 616.804 435.686 628.27 449.83 628.27Z" fill="#535461"/>
<path id="Vector_37" d="M442.992 600.736L442.984 600.742C439.977 602.991 439.362 607.253 441.611 610.26L461.937 637.441C464.186 640.448 468.448 641.063 471.455 638.814L471.463 638.808C474.471 636.559 475.085 632.297 472.836 629.29L452.51 602.109C450.261 599.102 446 598.487 442.992 600.736Z" fill="#1976D2"/>
<path id="Vector_38" d="M565.48 246.99L563.1 277.1C562.826 280.914 562.876 284.744 563.25 288.55C563.56 291.92 563.25 297.82 559.95 306.82C555.713 318.317 553.523 330.467 553.48 342.72V376.99L530.48 372.99C530.48 372.99 531.48 324.99 527.48 316.99C523.48 308.99 530.48 237.99 530.48 237.99L565.48 246.99Z" fill="#DB8B8B"/>
<path id="Vector_39" opacity="0.05" d="M564.3 261.91L563.1 277.1C562.83 280.911 562.883 284.738 563.26 288.54C563.57 291.91 563.26 297.81 559.96 306.82C555.723 318.317 553.533 330.467 553.49 342.72V376.99L530.49 372.99C530.49 372.99 531.49 324.99 527.49 316.99C524.66 311.32 527.34 274.05 529.15 252.78C529.9 244.03 530.49 237.99 530.49 237.99L565.49 246.99L564.3 261.91Z" fill="black"/>
<path id="Vector_40" d="M451.5 476.99L442.85 526.19C441.759 532.759 440.086 539.218 437.85 545.49C432.78 559.35 436.02 578.78 438.48 589.38C439.57 594.06 440.48 597.02 440.48 597.02L414.48 611.02L406.48 605.02V601.02L405.48 512.02C399.48 498.02 401.48 477.02 405.48 469.02C406.617 466.392 407.417 463.63 407.86 460.8C409.86 450.08 410.48 435.02 410.48 435.02C410.48 435.02 426.48 408.02 445.48 426.02C452.48 432.65 455.14 441.32 455.7 449.62C456.68 463.83 451.5 476.99 451.5 476.99Z" fill="#DB8B8B"/>
<path id="Vector_41" opacity="0.1" d="M455.7 449.59C441.83 457.83 417.7 460.16 407.86 460.77C409.86 450.05 410.48 434.99 410.48 434.99C410.48 434.99 426.48 407.99 445.48 425.99C452.48 432.62 455.14 441.29 455.7 449.59Z" fill="black"/>
<path id="Vector_42" d="M489.48 424.99C478.846 430.653 468.797 437.352 459.48 444.99C443.48 457.99 403.48 458.99 403.48 458.99V443.99C404.48 425.99 387.48 405.99 364.48 349.99C349.79 314.23 353.86 293.99 358.72 283.99C361.48 278.34 364.48 275.99 364.48 275.99L489.48 299.99L493.95 313.39L503.48 341.99C503.48 341.99 468.48 343.99 462.48 346.99C456.48 349.99 460.48 376.99 460.48 376.99C454.48 404.99 489.48 424.99 489.48 424.99Z" fill="#ABB1D1"/>
<path id="Vector_43" opacity="0.1" d="M565.48 246.99L564.3 261.91C546.9 266.91 534.48 250.99 534.48 250.99C532.665 251.477 530.882 252.074 529.14 252.78C529.89 244.03 530.48 237.99 530.48 237.99L565.48 246.99Z" fill="black"/>
<path id="Vector_44" opacity="0.1" d="M493.95 313.39C493.48 318.06 493.48 320.99 493.48 320.99C493.48 320.99 470.48 339.99 431.48 310.99C392.48 281.99 357.48 289.99 357.48 289.99C357.48 289.99 357.89 287.67 358.72 283.99C361.48 278.34 364.48 275.99 364.48 275.99L489.48 299.99L493.95 313.39Z" fill="black"/>
<path id="Vector_45" d="M578.96 207.94C576.35 228.29 575.48 253.94 575.48 253.94C552.48 271.94 534.48 248.94 534.48 248.94C512.76 254.77 502.55 273.78 497.74 290.37C495.164 299.344 493.732 308.607 493.48 317.94C493.48 317.94 487.4 322.94 476.2 323.94C465.61 324.83 450.43 322.07 431.48 307.94C392.48 278.94 357.48 286.94 357.48 286.94C357.48 286.94 364.48 246.94 380.48 234.94C396.48 222.94 408.48 207.94 428.48 161.94C448.48 115.94 489.48 126.94 489.48 126.94C489.48 126.94 491.48 117.94 528.48 126.94C537.492 129.302 545.834 133.721 552.85 139.85C572.64 156.49 582.24 182.3 578.96 207.94Z" fill="white"/>
<path id="Vector_46" d="M541.85 149.49C541.8 150.82 541.69 152.3 541.51 153.95C539.51 171.95 537.51 169.95 515.51 173.95C501.83 176.44 494.72 165.01 491.3 156.01C490.062 152.75 489.128 149.382 488.51 145.95L536.51 137.95C536.51 137.95 542.26 136.34 541.85 149.49Z" fill="#DB8B8B"/>
<path id="Vector_47" opacity="0.05" d="M497.74 290.42C495.164 299.394 493.732 308.657 493.48 317.99C493.48 317.99 487.4 322.99 476.2 323.99C475.884 323.353 475.643 322.682 475.48 321.99C473.48 312.99 458.48 296.99 458.48 296.99C448.48 287.99 446.48 271.99 446.48 271.99L429.98 223.49L424.48 218.99C424.48 218.99 447.48 200.99 467.48 215.99C487.48 230.99 481.48 262.99 481.48 262.99L485.48 273.99C489.63 277.49 493.85 283.66 497.74 290.42Z" fill="black"/>
<path id="Vector_48" d="M427.48 217.99L449.48 270.99C449.48 270.99 451.48 286.99 461.48 295.99C461.48 295.99 476.48 311.99 478.48 320.99C480.48 329.99 508.48 353.99 508.48 353.99C508.48 353.99 534.48 377.99 536.48 386.99C536.48 386.99 560.48 393.99 557.48 407.99C557.48 407.99 575.48 389.99 557.48 372.99C539.48 355.99 515.48 320.99 515.48 320.99C515.48 320.99 501.48 283.99 488.48 272.99L484.48 261.99C484.48 261.99 490.48 229.99 470.48 214.99C450.48 199.99 427.48 217.99 427.48 217.99Z" fill="#DB8B8B"/>
<path id="Vector_49" opacity="0.1" d="M440.48 596.99L414.48 610.99L406.48 604.99V600.99C415.464 600.352 424.193 597.718 432.03 593.28C434.43 591.92 436.69 590.58 438.5 589.4C439.55 594.03 440.48 596.99 440.48 596.99Z" fill="black"/>
<path id="Vector_50" opacity="0.1" d="M470.48 175.99L484.48 230.99C484.48 230.99 441.48 237.99 432.48 230.99C423.48 223.99 406.48 221.99 406.48 221.99C406.48 221.99 424.48 169.99 434.48 163.99C444.48 157.99 470.48 175.99 470.48 175.99Z" fill="black"/>
<path id="Vector_51" d="M470.48 173.99L484.48 228.99C484.48 228.99 441.48 235.99 432.48 228.99C423.48 221.99 406.48 219.99 406.48 219.99C406.48 219.99 424.48 167.99 434.48 161.99C444.48 155.99 470.48 173.99 470.48 173.99Z" fill="white"/>
<path id="Vector_52" opacity="0.1" d="M541.85 148.49C539.049 152.356 535.487 155.609 531.383 158.047C527.278 160.485 522.718 162.058 517.983 162.669C513.248 163.28 508.439 162.915 503.85 161.598C499.261 160.281 494.99 158.039 491.3 155.01C490.062 151.75 489.128 148.382 488.51 144.95L536.51 136.95C536.51 136.95 542.26 135.34 541.85 148.49Z" fill="black"/>
<path id="Vector_53" d="M548.48 126.99C548.48 136.273 544.793 145.175 538.229 151.739C531.665 158.303 522.763 161.99 513.48 161.99C504.197 161.99 495.295 158.303 488.731 151.739C482.168 145.175 478.48 136.273 478.48 126.99C478.48 126.41 478.48 125.83 478.48 125.25C478.711 115.967 482.62 107.157 489.346 100.756C496.073 94.3555 505.067 90.8893 514.35 91.12C523.633 91.3508 532.443 95.2595 538.844 101.986C545.245 108.713 548.711 117.707 548.48 126.99Z" fill="#DB8B8B"/>
<path id="Vector_54" opacity="0.1" d="M548.48 126.99C548.483 130.216 548.039 133.426 547.16 136.53C544.455 137.12 541.633 136.861 539.08 135.79C535.34 134.32 532.13 131.79 528.54 129.97C518.43 124.85 506.4 125.86 495.2 127.55C489.64 128.39 483.33 129.17 478.96 125.63C478.81 125.511 478.666 125.385 478.53 125.25C478.761 115.967 482.67 107.157 489.396 100.756C496.123 94.3555 505.117 90.8893 514.4 91.12C523.683 91.3508 532.493 95.2595 538.894 101.986C545.295 108.713 548.761 117.707 548.53 126.99H548.48Z" fill="black"/>
<g id="Hat">
<path id="Vector_55" d="M453.16 105.34C455.29 112.02 465.52 112.23 470.77 117.15C473.5 119.71 474.77 123.49 477.77 125.77C481.94 128.95 487.96 128.25 493.27 127.49C503.96 125.97 515.44 125.06 525.08 129.67C528.5 131.3 531.57 133.58 535.14 134.91C538.71 136.24 543.14 136.4 546.04 134.04C548.36 132.15 549.21 129.04 551.31 126.96C552.94 125.32 555.21 124.4 557.07 122.96C561.15 119.88 562.91 114.86 564.07 110.06C566.47 100.18 567.16 89.53 563.07 80.16C558.98 70.79 549.14 63.16 538.4 63.65C535.11 63.8 531.9 64.65 528.62 65.01C520.07 65.88 511.62 63.01 503.04 62.52C500.551 62.2172 498.027 62.5616 495.71 63.52C493.963 64.4908 492.457 65.8406 491.3 67.47C487.372 72.6154 484.682 78.5969 483.44 84.95C482.44 89.74 482.39 94.08 476.52 94.82C469.85 95.7 448.65 91.21 453.16 105.34Z" fill="#472727"/>
</g>
<path id="Vector_56" d="M482.98 630.49H422.98V649.49H482.98V630.49Z" fill="#1976D2"/>
<path id="Vector_57" opacity="0.1" d="M482.98 630.49H422.98V649.49H482.98V630.49Z" fill="black"/>
<path id="Vector_58" d="M431.99 595.23C437.36 592.23 442.07 589.23 442.48 587.99C442.48 587.99 456.03 602.29 468.1 606.73C472.159 608.229 476.044 610.16 479.69 612.49C484.47 615.49 491.29 619.02 497.48 619.02C497.48 619.02 511.48 631.02 484.48 633.02C457.48 635.02 394.48 628.02 394.48 628.02L398.48 603.02C410.167 603.705 421.804 601 431.99 595.23Z" fill="#ABB1D1"/>
</g>
<defs>
<linearGradient id="paint0_linear" x1="509" y1="123" x2="509" y2="753" gradientUnits="userSpaceOnUse">
<stop stop-color="#0077FF"/>
<stop offset="0.880208" stop-color="#1F3BA6" stop-opacity="0.333333"/>
<stop offset="1" stop-color="#2F1D7A" stop-opacity="0"/>
</linearGradient>
<clipPath id="clip0">
<rect width="1057.7" height="784.98" fill="white"/>
</clipPath>
</defs>
</svg>
